<?xml version="1.0" encoding="utf-8"?>
<!-- Generator: Adobe Illustrator 16.0.0, SVG Export Plug-In . SVG Version: 6.00 Build 0)  -->
<!DOCTYPE svg PUBLIC "-//W3C//DTD SVG 1.1//EN" "http://www.w3.org/Graphics/SVG/1.1/DTD/svg11.dtd">
<svg version="1.1" id="Livello_1" xmlns="http://www.w3.org/2000/svg" xmlns:xlink="http://www.w3.org/1999/xlink" x="0px" y="0px"
	 viewBox="-26.712 171.298 1493.925 454.477"
	 enable-background="new -26.712 171.298 1493.925 454.477" xml:space="preserve">
<linearGradient id="SVGID_1_" gradientUnits="userSpaceOnUse" x1="953.9238" y1="718.9265" x2="953.9238" y2="880.4666" gradientTransform="matrix(0.8959 0 0 -0.8959 287.7169 1124.349)">
	<stop  offset="0" style="stop-color:#828C94"/>
	<stop  offset="1" style="stop-color:#B4BAC1"/>
</linearGradient>
<path fill="url(#SVGID_1_)" stroke="#818E96" stroke-miterlimit="10" d="M1210.9,377.824c-3.9-8.818-9.218-16.42-15.808-22.628
	c-6.624-6.236-14.579-11.128-23.652-14.522c-9.093-3.409-18.882-5.138-29.12-5.138c-10.24,0-20.031,1.729-29.117,5.138
	c-9.08,3.395-17.025,8.286-23.637,14.522c-6.591,6.208-11.902,13.81-15.788,22.628c-3.87,8.779-5.836,18.704-5.836,29.49
	c0,10.795,1.964,20.774,5.836,29.637c3.876,8.895,9.19,16.602,15.797,22.919c6.603,6.334,14.548,11.375,23.643,14.971
	c9.097,3.599,18.895,5.42,29.103,5.42c10.21,0,20.006-1.821,29.103-5.42c0.259-0.101,0.466-0.264,0.722-0.365
	c-26.64-6.427-46.712-18.012-58.822-33.827c-0.679-0.744-1.461-1.363-2.076-2.15c-3.334-4.316-5.855-9.277-7.505-14.746
	c-1.659-5.441-2.492-10.981-2.492-16.438c0-5.46,0.834-10.945,2.492-16.305c1.655-5.37,4.184-10.279,7.505-14.579
	c3.355-4.32,7.638-7.859,12.742-10.517c5.115-2.65,11.279-3.983,18.333-3.983c7.05,0,13.222,1.333,18.337,3.983
	c5.11,2.666,9.389,6.207,12.728,10.517c3.317,4.283,5.848,9.185,7.523,14.579c1.662,5.386,2.492,10.868,2.492,16.305
	c0,5.435-0.83,10.979-2.492,16.438c-1.669,5.504-4.206,10.446-7.523,14.746c-3.345,4.314-7.62,7.907-12.707,10.63
	c-2.829,1.538-6.055,2.537-9.503,3.224c10.929,5.137,24.068,8.913,39.185,11.202c1.554-1.241,3.288-2.301,4.726-3.683
	c6.606-6.296,11.926-14.025,15.814-22.92c3.873-8.885,5.838-18.851,5.838-29.636C1216.737,396.547,1214.773,386.622,1210.9,377.824z
	"/>
<linearGradient id="SVGID_2_" gradientUnits="userSpaceOnUse" x1="306.3647" y1="718.9275" x2="306.3647" y2="878.0017" gradientTransform="matrix(0.8959 0 0 -0.8959 287.7169 1124.349)">
	<stop  offset="0" style="stop-color:#828C94"/>
	<stop  offset="1" style="stop-color:#B4BAC1"/>
</linearGradient>
<path fill="url(#SVGID_2_)" stroke="#818E96" stroke-width="0.75" stroke-miterlimit="10" d="M562.185,480.26
	c-9.424,0-17.087-7.67-17.087-17.091V354.831c0-9.337,7.603-17.001,16.95-17.087c9.563,0,17.232,7.664,17.232,17.087v108.338
	C579.281,472.591,571.611,480.26,562.185,480.26z"/>
<g>
	
		<linearGradient id="SVGID_3_" gradientUnits="userSpaceOnUse" x1="124.1665" y1="862.821" x2="124.1665" y2="958.4128" gradientTransform="matrix(0.8959 0 0 -0.8959 287.7169 1124.349)">
		<stop  offset="0" style="stop-color:#828C94"/>
		<stop  offset="1" style="stop-color:#B4BAC1"/>
	</linearGradient>
	<path fill="url(#SVGID_3_)" stroke="#818E96" stroke-width="0.75" stroke-miterlimit="10" d="M415.745,325.784v-43.275
		c0-9.271-7.527-16.805-17.099-16.805h-0.003c-9.086,0.171-16.472,7.708-16.472,16.805v68.836
		C390.378,339.51,402.169,330.507,415.745,325.784z"/>
	
		<linearGradient id="SVGID_4_" gradientUnits="userSpaceOnUse" x1="179.2788" y1="718.9265" x2="179.2788" y2="883.4851" gradientTransform="matrix(0.8959 0 0 -0.8959 287.7169 1124.349)">
		<stop  offset="0" style="stop-color:#828C94"/>
		<stop  offset="1" style="stop-color:#B4BAC1"/>
	</linearGradient>
	<path fill="url(#SVGID_4_)" stroke="#818E96" stroke-width="0.75" stroke-miterlimit="10" d="M448.339,332.832
		c-1.184,0-2.37,0.027-3.561,0.085c-34.524,1.809-62.608,33.138-62.608,69.868v60.229c0,9.491,7.735,17.246,17.237,17.246
		c9.505,0,17.241-7.755,17.241-17.246l0.01-64.425c0.208-17.272,14.419-31.313,31.676-31.313c17.488,0,31.715,14.226,31.715,31.715
		l-0.036,0.981v63.041c0,9.491,7.737,17.246,17.248,17.246c9.501,0,17.234-7.755,17.234-17.246v-64.022
		C514.496,362.508,484.822,332.832,448.339,332.832z"/>
</g>
<linearGradient id="SVGID_5_" gradientUnits="userSpaceOnUse" x1="605.1172" y1="718.9275" x2="605.1172" y2="887.5867" gradientTransform="matrix(0.8959 0 0 -0.8959 287.7169 1124.349)">
	<stop  offset="0" style="stop-color:#828C94"/>
	<stop  offset="1" style="stop-color:#B4BAC1"/>
</linearGradient>
<path fill="url(#SVGID_5_)" stroke="#818E96" stroke-width="0.75" stroke-miterlimit="10" d="M834.92,480.26
	c-11.08,0-21.411-1.757-30.688-5.225c-9.251-3.43-17.407-8.382-24.244-14.709c-6.786-6.3-12.181-14.135-16.021-23.307
	c-3.857-9.191-5.813-19.759-5.813-31.409c0-11.438,1.956-22.017,5.815-31.414c3.847-9.379,9.197-17.48,15.896-24.07
	c6.718-6.615,14.771-11.812,23.935-15.458c9.191-3.651,19.258-5.511,29.911-5.511c9.86,0,19.117,1.647,27.518,4.91
	c8.35,3.239,15.681,8.122,21.794,14.532c6.67,6.999,11.514,15.081,14.389,24.015c1.656,5.151,2.945,10.584,3.843,16.154
	c1.039,6.486-0.845,13.109-5.156,18.177c-4.462,5.231-10.949,8.228-17.809,8.228h-40.474l-0.987-0.064h-4.588
	c-6.587,0-11.938-5.356-11.938-11.942c0-6.585,5.352-11.94,11.938-11.94l27.585,0.013c2.706,0,4.739-0.895,6.037-2.672
	c2.783-3.781,1.147-10.046,0.582-11.874c-1.342-4.329-3.487-8.197-6.374-11.502c-2.899-3.315-6.612-5.988-11.034-7.94
	c-4.425-1.96-9.68-2.946-15.619-2.946c-11.035,0-20.53,3.372-28.225,10.044c-7.701,6.654-14.084,19.355-14.084,40.713
	c0,10.121,3.053,21.446,5.423,25.874c2.356,4.427,5.536,8.278,9.435,11.456c3.854,3.152,8.305,5.688,13.232,7.531
	c4.908,1.849,10.102,2.781,15.423,2.781c9.437,0,24.87,0,35.7-12.458c0.486-0.562,1.043-1.346,1.68-2.245
	c2.595-3.682,6.516-9.242,13.176-9.242c1.57,0,3.239,0.312,4.974,0.92c3.43,1.22,5.771,3.22,6.95,5.95
	c2.282,5.252-0.266,11.887-1.096,13.792C884.084,476.753,857.101,480.26,834.92,480.26z"/>
<g>
	
		<linearGradient id="SVGID_6_" gradientUnits="userSpaceOnUse" x1="1107.9258" y1="848.0632" x2="1107.9258" y2="958.8503" gradientTransform="matrix(0.8959 0 0 -0.8959 287.7169 1124.349)">
		<stop  offset="0" style="stop-color:#828C94"/>
		<stop  offset="1" style="stop-color:#B4BAC1"/>
	</linearGradient>
	<path fill="url(#SVGID_6_)" stroke="#818E96" stroke-width="0.75" stroke-miterlimit="10" d="M1313.916,337.544h-25.469v-10.083
		c0-3.663,0.313-7.473,0.934-11.301c0.613-3.911,1.813-7.58,3.562-10.859c1.909-3.602,4.688-6.409,8.02-8.122
		c3.541-1.804,6.247-1.956,8.951-1.956l5.016,0.02c8.245,0,14.943-6.702,14.943-14.947c0-8.229-6.698-14.942-14.943-14.942h-5.938
		l-1.455-0.041c-9.335,0.399-17.198,2.072-23.381,5.015c-7.252,3.419-13.159,8.139-17.575,14.012
		c-4.425,5.915-7.607,12.84-9.477,20.594c-1.872,7.848-2.818,16.138-2.818,24.648v7.962h-10.077
		c-7.425,0-13.457,6.055-13.457,13.488c0,7.426,6.031,13.466,13.457,13.466h9.078l0.999,0.07h34.163v-0.07h25.469
		c7.427,0,13.467-6.04,13.467-13.466C1327.382,343.598,1321.342,337.544,1313.916,337.544z"/>
	
		<linearGradient id="SVGID_7_" gradientUnits="userSpaceOnUse" x1="1097.918" y1="718.9275" x2="1097.918" y2="834.8142" gradientTransform="matrix(0.8959 0 0 -0.8959 287.7169 1124.349)">
		<stop  offset="0" style="stop-color:#828C94"/>
		<stop  offset="1" style="stop-color:#B4BAC1"/>
	</linearGradient>
	<path fill="url(#SVGID_7_)" stroke="#818E96" stroke-width="0.75" stroke-miterlimit="10" d="M1254.283,376.436l-0.079,86.4
		c0,9.593,7.684,17.423,17.133,17.423c9.454,0,17.15-7.83,17.15-17.423l-0.041-86.4H1254.283L1254.283,376.436z"/>
</g>
<g>
	
		<linearGradient id="SVGID_8_" gradientUnits="userSpaceOnUse" x1="778.5137" y1="755.9802" x2="778.5137" y2="839.0398" gradientTransform="matrix(0.8959 0 0 -0.8959 287.7169 1124.349)">
		<stop  offset="0" style="stop-color:#828C94"/>
		<stop  offset="1" style="stop-color:#B4BAC1"/>
	</linearGradient>
	<path fill="url(#SVGID_8_)" stroke="#818E96" stroke-width="0.75" stroke-miterlimit="10" d="M1040.158,419.29
		c-2.02-4.619-4.718-8.589-8.016-11.8c-3.229-3.107-6.931-5.688-11.008-7.662c-3.854-1.863-7.814-3.393-11.771-4.534
		c-3.96-1.12-9.423-2.144-12.822-2.651c-1.648-0.224-3.525-0.453-5.537-0.701c-2.28-0.281-4.727-0.58-7.542-1.001
		c-2.639-0.371-5.271-0.816-7.666-1.388c-20.288-3.713-36.388-9.399-47.887-16.902c-0.496,2.796-0.733,5.471-0.733,8.158
		c0,5.856,1.041,11.082,3.103,15.528c2.02,4.392,4.737,8.217,8.084,11.392c3.257,3.074,6.945,5.667,10.991,7.687
		c3.825,1.926,7.824,3.51,11.863,4.705c3.896,1.164,7.719,2.072,11.363,2.749l9.281,1.665c0.555,0.092,1.496,0.208,2.672,0.323
		c2.625,0.291,6.432,0.709,10.126,1.491c13.293,2.185,32.105,7.576,47.154,20.716c0.925-3.85,1.392-7.512,1.392-11.12
		C1043.205,429.549,1042.182,423.942,1040.158,419.29z"/>
	
		<linearGradient id="SVGID_9_" gradientUnits="userSpaceOnUse" x1="776.7803" y1="836.3835" x2="776.7803" y2="878.1648" gradientTransform="matrix(0.8959 0 0 -0.8959 287.7169 1124.349)">
		<stop  offset="0" style="stop-color:#828C94"/>
		<stop  offset="1" style="stop-color:#B4BAC1"/>
	</linearGradient>
	<path fill="url(#SVGID_9_)" stroke="#818E96" stroke-width="0.75" stroke-miterlimit="10" d="M980.41,370.467h38.613
		c9.061,0,16.436-7.386,16.436-16.438c0-9.067-7.375-16.43-16.436-16.43h-34.709c-7.223,0-13.959,0.596-20.008,1.779
		c-6.506,1.29-12.53,3.522-17.855,6.646c-5.6,3.278-10.226,7.791-13.779,13.419c-0.256,0.409-0.478,0.831-0.857,1.608
		c7.843,5.724,18.813,10.422,32.621,13.979C968.055,370.472,976.599,370.472,980.41,370.467z"/>
	
		<linearGradient id="SVGID_10_" gradientUnits="userSpaceOnUse" x1="776.9355" y1="718.9275" x2="776.9355" y2="762.5017" gradientTransform="matrix(0.8959 0 0 -0.8959 287.7169 1124.349)">
		<stop  offset="0" style="stop-color:#828C94"/>
		<stop  offset="1" style="stop-color:#B4BAC1"/>
	</linearGradient>
	<path fill="url(#SVGID_10_)" stroke="#818E96" stroke-width="0.75" stroke-miterlimit="10" d="M987.551,447.332
		c-0.123,0-40.463,0.016-40.463,0.016c-9.053,0-16.431,7.39-16.431,16.448s7.377,16.425,16.431,16.425l37.276,0.039
		c10.788,0,18.322-0.784,25.197-2.607c6.716-1.799,12.642-4.497,17.582-8.068c3.752-2.689,6.941-6.186,9.75-10.7
		c-7.97-7.919-18.402-13.865-31.046-17.662C1003.024,445.218,996.722,447.332,987.551,447.332z"/>
</g>
<g>
	
		<linearGradient id="SVGID_11_" gradientUnits="userSpaceOnUse" x1="403.5571" y1="718.9275" x2="403.5571" y2="878.1687" gradientTransform="matrix(0.8959 0 0 -0.8959 287.7169 1124.349)">
		<stop  offset="0" style="stop-color:#828C94"/>
		<stop  offset="1" style="stop-color:#B4BAC1"/>
	</linearGradient>
	<path fill="url(#SVGID_11_)" stroke="#818E96" stroke-width="0.75" stroke-miterlimit="10" d="M676.787,480.26
		c-11.265,0-21.281-6.758-25.517-17.21l-41.46-102.573c-2.078-5.145-1.459-10.953,1.634-15.546c3.104-4.59,8.258-7.336,13.799-7.336
		h1.111c6.902,0,13.167,4.337,15.584,10.801l30.031,80.116l17.963,48.316C685.836,479.071,681.309,480.26,676.787,480.26z"/>
	
		<linearGradient id="SVGID_12_" gradientUnits="userSpaceOnUse" x1="475.7158" y1="732.2537" x2="475.7158" y2="878.1677" gradientTransform="matrix(0.8959 0 0 -0.8959 287.7169 1124.349)">
		<stop  offset="0" style="stop-color:#828C94"/>
		<stop  offset="1" style="stop-color:#B4BAC1"/>
	</linearGradient>
	<path fill="url(#SVGID_12_)" stroke="#818E96" stroke-width="0.75" stroke-miterlimit="10" d="M683.447,425.135l28.636-76.668
		c2.41-6.501,8.678-10.872,15.618-10.872c5.605,0,10.624,2.658,13.779,7.3c3.144,4.64,3.762,10.282,1.69,15.493l-40.815,102.519
		c-0.754,1.881-1.718,3.688-2.908,5.413L683.447,425.135z"/>
</g>
<g>
	
		<linearGradient id="SVGID_13_" gradientUnits="userSpaceOnUse" x1="1210.3701" y1="765.9568" x2="1210.3701" y2="960.615" gradientTransform="matrix(0.8959 0 0 -0.8959 287.7169 1124.349)">
		<stop  offset="0" style="stop-color:#828C94"/>
		<stop  offset="1" style="stop-color:#B4BAC1"/>
	</linearGradient>
	<path fill="url(#SVGID_13_)" stroke="#818E96" stroke-width="0.75" stroke-miterlimit="10" d="M1389.383,438.126
		c-0.59-2.791-0.878-5.577-0.878-8.49V280.521c0-9.229-7.523-16.764-16.817-16.791c-9.237,0-16.76,7.534-16.76,16.791
		l-0.128,133.618C1359.818,420.983,1374.521,434.585,1389.383,438.126z"/>
	
		<linearGradient id="SVGID_14_" gradientUnits="userSpaceOnUse" x1="1235.7871" y1="718.9275" x2="1235.7871" y2="773.7927" gradientTransform="matrix(0.8959 0 0 -0.8959 287.7169 1124.349)">
		<stop  offset="0" style="stop-color:#828C94"/>
		<stop  offset="1" style="stop-color:#B4BAC1"/>
	</linearGradient>
	<path fill="url(#SVGID_14_)" stroke="#818E96" stroke-width="0.75" stroke-miterlimit="10" d="M1424.286,453.213l-3.113,0.033
		c-4.591,0-8.979-0.165-13.659-0.462c-2.246-0.057-4.2-0.321-5.917-0.676c-20.053-2.285-35.679-11.483-46.507-21.003
		c0.216,5.604,0.795,13.818,1.771,18.37c1.26,5.967,3.635,11.316,7.058,15.896c3.386,4.564,8.066,8.203,13.921,10.828
		c5.484,2.475,9.912,3.987,25.36,4.06h17.692c7.573,0,13.743-6.156,13.743-13.728
		C1434.635,460.152,1430.715,453.213,1424.286,453.213z"/>
	
		<linearGradient id="SVGID_15_" gradientUnits="userSpaceOnUse" x1="1265.2422" y1="832.4021" x2="1265.2422" y2="881.9802" gradientTransform="matrix(0.8959 0 0 -0.8959 287.7169 1124.349)">
		<stop  offset="0" style="stop-color:#828C94"/>
		<stop  offset="1" style="stop-color:#B4BAC1"/>
	</linearGradient>
	<path fill="url(#SVGID_15_)" stroke="#818E96" stroke-width="0.75" stroke-miterlimit="10" d="M1436.981,340.5
		c-4.302-4.198-9.697-6.32-16.03-6.32c-6.406,0-11.558,2.163-15.701,6.619c-4.125,4.396-6.216,9.631-6.216,15.592
		c0,6.027,2.028,11.12,6.224,15.598c4.145,4.431,9.286,6.609,15.693,6.609c6.332,0,11.729-2.135,16.03-6.312
		c4.307-4.198,6.486-9.543,6.486-15.896C1443.468,350.041,1441.288,344.693,1436.981,340.5z"/>
</g>
<linearGradient id="SVGID_16_" gradientUnits="userSpaceOnUse" x1="283.2271" y1="915.1423" x2="328.9272" y2="915.1423" gradientTransform="matrix(0.8959 0 0 -0.8959 287.7169 1124.349)">
	<stop  offset="0" style="stop-color:#FFFFFF"/>
	<stop  offset="0.0611" style="stop-color:#FAF5E1"/>
	<stop  offset="0.1716" style="stop-color:#F5EAB8"/>
	<stop  offset="0.2753" style="stop-color:#F1E398"/>
	<stop  offset="0.3693" style="stop-color:#EEDE82"/>
	<stop  offset="0.4504" style="stop-color:#ECDB73"/>
	<stop  offset="0.5092" style="stop-color:#ECDA6E"/>
	<stop  offset="0.5692" style="stop-color:#ECDA74"/>
	<stop  offset="0.6523" style="stop-color:#EBDB82"/>
	<stop  offset="0.749" style="stop-color:#EBDE97"/>
	<stop  offset="0.8557" style="stop-color:#EAE1B6"/>
	<stop  offset="0.9696" style="stop-color:#E7E6DC"/>
	<stop  offset="1" style="stop-color:#E6E7E7"/>
</linearGradient>
<path fill="url(#SVGID_16_)" stroke="#636D74" stroke-width="0.6511" d="M562.155,326.213c-5.695,0-10.575-1.897-14.614-5.701
	c-4.057-3.797-6.08-9.173-6.08-16.125c0-6.295,2.072-11.488,6.22-15.557c4.152-4.072,8.98-6.104,14.475-6.104
	c5.3,0,9.992,1.845,14.098,5.535c4.105,3.691,6.151,9.071,6.151,16.126c0,6.844-2.004,12.195-5.999,16.043
	C572.407,324.286,567.652,326.213,562.155,326.213z"/>
<path fill="#FFFFFF" stroke="#636D74" stroke-width="0.6511" d="M560.837,294.324c0,6.42-4.542,11.627-10.163,11.627
	c-5.614,0-10.156-5.207-10.156-11.627c0-6.419,4.542-11.621,10.156-11.621C556.295,282.703,560.837,287.905,560.837,294.324z"/>
<path fill="#2B363B" d="M549.578,298.464c0,1.971-1.421,3.566-3.182,3.566c-1.749,0-3.171-1.596-3.171-3.566
	c0-1.973,1.422-3.575,3.171-3.575C548.157,294.888,549.578,296.491,549.578,298.464z"/>
<path fill="#FFFFFF" stroke="#636D74" stroke-width="0.6511" d="M583.86,294.324c0,6.42-4.544,11.627-10.157,11.627
	c-5.617,0-10.162-5.207-10.162-11.627c0-6.419,4.545-11.621,10.162-11.621C579.316,282.703,583.86,287.905,583.86,294.324z"/>
<path fill="#2B363B" d="M572.595,298.135c0,1.977-1.419,3.573-3.167,3.573c-1.757,0-3.178-1.598-3.178-3.573
	c0-1.971,1.421-3.569,3.178-3.569C571.176,294.565,572.595,296.165,572.595,298.135z"/>
<path fill="none" stroke="#4C575D" stroke-width="0.791" stroke-linecap="round" d="M549.647,279.051c0,0,2.695,1.107,3.33-3.657
	c0.639-4.763,6.515,8.57,6.515,9.051"/>
<path fill="none" stroke="#4C575D" stroke-width="0.791" stroke-linecap="round" d="M565.164,284.742c0,0,0.479-15.082,3.333-10.957
	c2.86,4.129,3.65,6.032,3.65,6.032"/>
<g>
	
		<linearGradient id="SVGID_17_" gradientUnits="userSpaceOnUse" x1="-310.3857" y1="850.9763" x2="48.4976" y2="850.9763" gradientTransform="matrix(0.8959 0 0 -0.8959 287.7169 1124.349)">
		<stop  offset="0" style="stop-color:#FFFFFF"/>
		<stop  offset="0.0611" style="stop-color:#FAF5E1"/>
		<stop  offset="0.1716" style="stop-color:#F5EAB8"/>
		<stop  offset="0.2753" style="stop-color:#F1E398"/>
		<stop  offset="0.3693" style="stop-color:#EEDE82"/>
		<stop  offset="0.4504" style="stop-color:#ECDB73"/>
		<stop  offset="0.5092" style="stop-color:#ECDA6E"/>
		<stop  offset="0.5692" style="stop-color:#ECDA74"/>
		<stop  offset="0.6523" style="stop-color:#EBDB82"/>
		<stop  offset="0.749" style="stop-color:#EBDE97"/>
		<stop  offset="0.8557" style="stop-color:#EAE1B6"/>
		<stop  offset="0.9696" style="stop-color:#E7E6DC"/>
		<stop  offset="1" style="stop-color:#E6E7E7"/>
	</linearGradient>
	<path fill="url(#SVGID_17_)" stroke="#636D74" stroke-width="1.054" d="M175.5,357.928c0,0,56.781-1.631,129.795-34.079
		c0,0,19.471-11.354,22.718,8.126c3.248,19.462,8.108,22.714-9.745,34.066c-17.835,11.357-87.614,37.312-144.381,37.312
		c-56.809,0-150.909-32.441-150.909-32.441S3.514,359.55,11.612,343.327c8.119-16.23,10.819-27.049,27.581-16.23
		C51.399,334.956,154.409,357.928,175.5,357.928z"/>
	
		<linearGradient id="SVGID_18_" gradientUnits="userSpaceOnUse" x1="-313.4419" y1="741.9392" x2="49.8486" y2="741.9392" gradientTransform="matrix(0.8959 0 0 -0.8959 287.7169 1124.349)">
		<stop  offset="0.0184" style="stop-color:#ECDA6E"/>
		<stop  offset="0.5276" style="stop-color:#DEB275"/>
		<stop  offset="1" style="stop-color:#ECDA6E"/>
	</linearGradient>
	<path fill="url(#SVGID_18_)" stroke="#636D74" stroke-width="1.054" d="M177.669,458.526c0,0,59.468,0.526,132.494-31.91
		c0,0,23.269-16.219,22.176-4.877c-1.87,19.649-2.146,24.883-8.649,32.453c-13.775,16.077-89.243,48.144-146.021,48.144
		c-56.791,0-151.443-42.193-151.443-42.193s-15.146-9.193-18.927-32.986c-3.57-22.42,17.848-1.626,33.528,3.243
		C54.679,434.698,134.927,462.322,177.669,458.526z"/>
	
		<linearGradient id="SVGID_19_" gradientUnits="userSpaceOnUse" x1="-293.6504" y1="699.9255" x2="31.7505" y2="699.9255" gradientTransform="matrix(0.8959 0 0 -0.8959 287.7169 1124.349)">
		<stop  offset="0.0184" style="stop-color:#ECDA6E"/>
		<stop  offset="0.5276" style="stop-color:#DEB275"/>
		<stop  offset="1" style="stop-color:#ECDA6E"/>
	</linearGradient>
	<path fill="url(#SVGID_19_)" stroke="#636D74" stroke-width="1.054" d="M174.413,502.336c0,0,59.81-2.259,121.702-29.752
		c0,0,20.928-15.03,20.018-5.397c-1.6,16.631-11.009,25.344-17.867,30.275c-17.297,12.442-75.876,33.539-123.982,33.539
		c-48.122,0-113.438-23.799-113.438-23.799s-14.068-4.323-27.594-24.347c-20.731-30.665,0.771-16.259,14.067-13.511
		C59.368,471.835,138.207,505.55,174.413,502.336z"/>
	
		<linearGradient id="SVGID_20_" gradientUnits="userSpaceOnUse" x1="-260.4707" y1="662.864" x2="6.4727" y2="662.864" gradientTransform="matrix(0.8959 0 0 -0.8959 287.7169 1124.349)">
		<stop  offset="0.0184" style="stop-color:#ECDA6E"/>
		<stop  offset="0.5276" style="stop-color:#DEB275"/>
		<stop  offset="1" style="stop-color:#ECDA6E"/>
	</linearGradient>
	<path fill="url(#SVGID_20_)" stroke="#636D74" stroke-width="1.054" d="M173.48,529.916c0,0,52.089,5.87,104.762-21.634
		c0,0,16.885-11.657,15.148-2.158c-3.232,17.854-27.24,29.573-34.063,32.996c-32.464,16.228-44.991,19.458-85.981,19.458
		c-40.962,0-67.614-9.731-67.614-9.731s-15.138-3.239-30.286-14.063c-28.794-20.559-23.221-27.081-11.888-24.335
		C73.814,512.938,142.65,533.12,173.48,529.916z"/>
	
		<linearGradient id="SVGID_21_" gradientUnits="userSpaceOnUse" x1="-226.8188" y1="627.7742" x2="-36.1025" y2="627.7742" gradientTransform="matrix(0.8959 0 0 -0.8959 287.7169 1124.349)">
		<stop  offset="0.0184" style="stop-color:#ECDA6E"/>
		<stop  offset="0.5276" style="stop-color:#DEB275"/>
		<stop  offset="1" style="stop-color:#ECDA6E"/>
	</linearGradient>
	<path fill="url(#SVGID_21_)" stroke="#636D74" stroke-width="1.054" d="M173.334,558.049c0,0,40.661,2.253,81.655-16.779
		c0,0,1.723,5.879-2.148,11.357c-10.288,14.621-37.345,28.122-69.767,29.749c-31.854,1.6-63.39-6.563-75.194-14.048
		c-22.394-14.24-28.266-26.787-19.455-24.89C96.409,545.17,149.337,560.257,173.334,558.049z"/>
	
		<linearGradient id="SVGID_22_" gradientUnits="userSpaceOnUse" x1="-319.4937" y1="795.3806" x2="57.1235" y2="795.3806" gradientTransform="matrix(0.8959 0 0 -0.8959 287.7169 1124.349)">
		<stop  offset="0" style="stop-color:#FFFFFF"/>
		<stop  offset="0.0611" style="stop-color:#FAF5E1"/>
		<stop  offset="0.1716" style="stop-color:#F5EAB8"/>
		<stop  offset="0.2753" style="stop-color:#F1E398"/>
		<stop  offset="0.3693" style="stop-color:#EEDE82"/>
		<stop  offset="0.4504" style="stop-color:#ECDB73"/>
		<stop  offset="0.5092" style="stop-color:#ECDA6E"/>
		<stop  offset="0.5692" style="stop-color:#ECDA74"/>
		<stop  offset="0.6523" style="stop-color:#EBDB82"/>
		<stop  offset="0.749" style="stop-color:#EBDE97"/>
		<stop  offset="0.8557" style="stop-color:#EAE1B6"/>
		<stop  offset="0.9696" style="stop-color:#E7E6DC"/>
		<stop  offset="1" style="stop-color:#E6E7E7"/>
	</linearGradient>
	<path fill="url(#SVGID_22_)" stroke="#636D74" stroke-width="1.054" d="M172.306,404.009c6.468-0.397,96.758-13.641,129.854-28.85
		c0,0,36.096-21.207,36.19-3.462c0.102,19.737,4.472,35.285-13.375,46.652c-17.864,11.352-96.165,40.564-152.939,40.564
		c-56.78,0-150.342-38.133-150.342-38.133s-24.266-6.214-19.622-36.914c2.848-18.794,6.643-20.957,20.289-13.382
		C35.054,377.513,144.191,405.782,172.306,404.009z"/>
	
		<linearGradient id="SVGID_23_" gradientUnits="userSpaceOnUse" x1="-292.2681" y1="901.1072" x2="27.8755" y2="901.1072" gradientTransform="matrix(0.8959 0 0 -0.8959 287.7169 1124.349)">
		<stop  offset="0" style="stop-color:#FFFFFF"/>
		<stop  offset="0.0611" style="stop-color:#FAF5E1"/>
		<stop  offset="0.1716" style="stop-color:#F5EAB8"/>
		<stop  offset="0.2753" style="stop-color:#F1E398"/>
		<stop  offset="0.3693" style="stop-color:#EEDE82"/>
		<stop  offset="0.4504" style="stop-color:#ECDB73"/>
		<stop  offset="0.5092" style="stop-color:#ECDA6E"/>
		<stop  offset="0.5692" style="stop-color:#ECDA74"/>
		<stop  offset="0.6523" style="stop-color:#EBDB82"/>
		<stop  offset="0.749" style="stop-color:#EBDE97"/>
		<stop  offset="0.8557" style="stop-color:#EAE1B6"/>
		<stop  offset="0.9696" style="stop-color:#E7E6DC"/>
		<stop  offset="1" style="stop-color:#E6E7E7"/>
	</linearGradient>
	<path fill="url(#SVGID_23_)" stroke="#636D74" stroke-width="1.054" d="M171.725,309.789c0,0,49.791,1.119,113.982-30.066
		c0,0,17.111-10.916,19.97,7.793c2.839,18.706,14.759,24.346-0.909,35.253c-15.689,10.91-79.911,35.686-129.812,35.686
		c-49.909,0-137.377-33.531-137.377-33.531s-17.1-10.908-9.966-26.491c7.119-15.587,14.802-27.34,26.203-21.089
		C65.217,283.575,153.173,309.789,171.725,309.789z"/>
	
		<linearGradient id="SVGID_24_" gradientUnits="userSpaceOnUse" x1="-260.6206" y1="951.322" x2="2.1943" y2="951.322" gradientTransform="matrix(0.8959 0 0 -0.8959 287.7169 1124.349)">
		<stop  offset="0" style="stop-color:#FFFFFF"/>
		<stop  offset="0.0611" style="stop-color:#FAF5E1"/>
		<stop  offset="0.1716" style="stop-color:#F5EAB8"/>
		<stop  offset="0.2753" style="stop-color:#F1E398"/>
		<stop  offset="0.3693" style="stop-color:#EEDE82"/>
		<stop  offset="0.4504" style="stop-color:#ECDB73"/>
		<stop  offset="0.5092" style="stop-color:#ECDA6E"/>
		<stop  offset="0.5692" style="stop-color:#ECDA74"/>
		<stop  offset="0.6523" style="stop-color:#EBDB82"/>
		<stop  offset="0.749" style="stop-color:#EBDE97"/>
		<stop  offset="0.8557" style="stop-color:#EAE1B6"/>
		<stop  offset="0.9696" style="stop-color:#E7E6DC"/>
		<stop  offset="1" style="stop-color:#E6E7E7"/>
	</linearGradient>
	<path fill="url(#SVGID_24_)" stroke="#636D74" stroke-width="1.054" d="M171.482,257.738c0,0,23.267,3.835,76.786-22.174
		c0,0,5.949-7.569,25.979,9.731c11.914,10.331,22.487,24.563,9.424,33.661c-13.101,9.113-68.425,31.243-110.036,31.243
		c-41.621,0-116.596-31.777-116.596-31.777s-6.176-8.769-0.226-21.768c5.95-13.002,25.104-24.125,34.614-18.924
		C100.952,242.927,156.021,257.738,171.482,257.738z"/>
	
		<linearGradient id="SVGID_25_" gradientUnits="userSpaceOnUse" x1="-220.1733" y1="1000.0554" x2="-41.1299" y2="1000.0554" gradientTransform="matrix(0.8959 0 0 -0.8959 287.7169 1124.349)">
		<stop  offset="0" style="stop-color:#FFFFFF"/>
		<stop  offset="0.0611" style="stop-color:#FAF5E1"/>
		<stop  offset="0.1716" style="stop-color:#F5EAB8"/>
		<stop  offset="0.2753" style="stop-color:#F1E398"/>
		<stop  offset="0.3693" style="stop-color:#EEDE82"/>
		<stop  offset="0.4504" style="stop-color:#ECDB73"/>
		<stop  offset="0.5092" style="stop-color:#ECDA6E"/>
		<stop  offset="0.5692" style="stop-color:#ECDA74"/>
		<stop  offset="0.6523" style="stop-color:#EBDB82"/>
		<stop  offset="0.749" style="stop-color:#EBDE97"/>
		<stop  offset="0.8557" style="stop-color:#EAE1B6"/>
		<stop  offset="0.9696" style="stop-color:#E7E6DC"/>
		<stop  offset="1" style="stop-color:#E6E7E7"/>
	</linearGradient>
	<path fill="url(#SVGID_25_)" stroke="#636D74" stroke-width="1.054" d="M91.131,231.899c0,0,29.758-31.908,75.734-31.908
		c45.949,0,87.064,21.092,83.823,31.379c-3.264,10.275-45.99,24.865-77.354,25.418C141.978,257.323,83.565,240.555,91.131,231.899z"
		/>
	
		<linearGradient id="SVGID_26_" gradientUnits="userSpaceOnUse" x1="-317.2095" y1="791.8162" x2="56.1157" y2="791.8162" gradientTransform="matrix(0.8959 0 0 -0.8959 287.7169 1124.349)">
		<stop  offset="0.0184" style="stop-color:#ECDA6E"/>
		<stop  offset="0.5276" style="stop-color:#DEB275"/>
		<stop  offset="1" style="stop-color:#ECDA6E"/>
	</linearGradient>
	<path fill="url(#SVGID_26_)" d="M3.527,395.524c0.461,18.834,20.018,24.89,20.018,24.89s92.68,37.303,148.925,37.303
		c56.239,0,134.118-28.051,151.466-39.67c18.63-12.501,13.58-28.403,13.004-45.846C180.194,455.669,54.103,419.372,3.527,395.524z"
		/>
	<path d="M238.125,408.273c0,32.643-27.416,59.105-61.215,59.105c-33.82,0-61.223-26.462-61.223-59.105
		c0-32.647,27.405-59.102,61.223-59.102C210.709,349.171,238.125,375.626,238.125,408.273z"/>
	<g>
		<path fill="#FFFFFF" d="M161.02,440.782c0,5.563-3.931,10.062-8.803,10.062c-4.868,0-8.799-4.499-8.799-10.062
			c0-5.56,3.931-10.081,8.799-10.081C157.089,430.701,161.02,435.223,161.02,440.782z"/>
		<path fill="#2B363B" d="M153.741,443.724c0,1.711-1.241,3.097-2.746,3.097c-1.536,0-2.748-1.386-2.748-3.097
			c0-1.707,1.21-3.099,2.748-3.099C152.5,440.627,153.741,442.017,153.741,443.724z"/>
		<path fill="#FFFFFF" d="M179.488,440.782c0,5.563-3.938,10.062-8.804,10.062c-4.857,0-8.781-4.499-8.781-10.062
			c0-5.56,3.924-10.081,8.781-10.081C175.549,430.701,179.488,435.223,179.488,440.782z"/>
		<path fill="#2B363B" d="M172.104,443.62c0,1.718-1.243,3.092-2.744,3.092c-1.541,0-2.76-1.374-2.76-3.092
			c0-1.702,1.219-3.088,2.76-3.088C170.861,440.532,172.104,441.918,172.104,443.62z"/>
	</g>
	<g>
		<path fill="#FFFFFF" d="M147.119,408.116c0,8.595-6.071,15.548-13.587,15.548c-7.519,0-13.616-6.953-13.616-15.548
			c0-8.6,6.095-15.561,13.616-15.561C141.048,392.556,147.119,399.516,147.119,408.116z"/>
		<path fill="#2B363B" d="M140.386,416.476c0,2.646-1.92,4.778-4.268,4.778c-2.34,0-4.237-2.132-4.237-4.778
			c0-2.641,1.897-4.768,4.237-4.768C138.467,411.708,140.386,413.836,140.386,416.476z"/>
		<path fill="#FFFFFF" d="M177.943,408.116c0,8.595-6.097,15.548-13.602,15.548s-13.61-6.953-13.61-15.548
			c0-8.6,6.105-15.561,13.61-15.561S177.943,399.516,177.943,408.116z"/>
		<path fill="#2B363B" d="M168.507,416.175c0,2.639-1.907,4.784-4.266,4.784c-2.329,0-4.235-2.145-4.235-4.784
			c0-2.642,1.907-4.779,4.235-4.779C166.601,411.395,168.507,413.534,168.507,416.175z"/>
	</g>
	<g>
		<path fill="#FFFFFF" d="M204.835,417.021c0,5.035-3.554,9.114-7.954,9.114c-4.418,0-7.982-4.079-7.982-9.114
			s3.566-9.109,7.982-9.109C201.283,407.912,204.835,411.986,204.835,417.021z"/>
		<path fill="#2B363B" d="M200.605,415.697c0,1.553-1.104,2.804-2.464,2.804c-1.384,0-2.508-1.252-2.508-2.804
			c0-1.549,1.125-2.794,2.508-2.794C199.501,412.903,200.605,414.148,200.605,415.697z"/>
		<path fill="#FFFFFF" d="M222.887,417.021c0,5.035-3.574,9.114-7.979,9.114c-4.387,0-7.939-4.079-7.939-9.114
			s3.552-9.109,7.939-9.109C219.313,407.912,222.887,411.986,222.887,417.021z"/>
		<path fill="#2B363B" d="M219.086,416.014c0,1.552-1.115,2.8-2.485,2.8c-1.365,0-2.5-1.248-2.5-2.8c0-1.544,1.136-2.809,2.5-2.809
			C217.971,413.205,219.086,414.47,219.086,416.014z"/>
	</g>
	<g>
		<path fill="#FFFFFF" d="M188.267,373.427c0,7.002-4.957,12.672-11.061,12.672c-6.129,0-11.083-5.67-11.083-12.672
			c0-6.983,4.956-12.655,11.083-12.655C183.312,360.773,188.267,366.444,188.267,373.427z"/>
		<path fill="#2B363B" d="M176.071,370.525c0,2.154-1.546,3.892-3.454,3.892s-3.472-1.737-3.472-3.892
			c0-2.155,1.564-3.895,3.472-3.895S176.071,368.37,176.071,370.525z"/>
		<path fill="#FFFFFF" d="M213.336,373.427c0,7.002-4.947,12.672-11.056,12.672c-6.115,0-11.061-5.67-11.061-12.672
			c0-6.983,4.945-12.655,11.061-12.655C208.389,360.773,213.336,366.444,213.336,373.427z"/>
		<path fill="#2B363B" d="M200.876,369.912c0,2.146-1.542,3.877-3.438,3.877c-1.917,0-3.484-1.732-3.484-3.877
			c0-2.161,1.567-3.897,3.484-3.897C199.334,366.016,200.876,367.752,200.876,369.912z"/>
	</g>
	<path fill="#737F85" d="M224.603,371.424c5.283,8.714,8.356,18.838,8.356,29.682c0,32.631-27.43,59.106-61.234,59.106
		c-19.143,0-36.265-8.505-47.485-21.823c10.618,17.575,30.306,29.421,52.906,29.421c33.797,0,61.212-26.456,61.212-59.097
		C238.356,394.564,233.19,381.58,224.603,371.424z"/>
</g>
<g id="SPECCHIO">
	<g>
		<g>
			<defs>
				<path id="SVGID_27_" d="M348.179,343.632c0,0,358.698,136.812,1111.303,0V241.722H348.179V343.632z"/>
			</defs>
			<clipPath id="SVGID_28_">
				<use xlink:href="#SVGID_27_"  overflow="visible"/>
			</clipPath>
			<path clip-path="url(#SVGID_28_)" fill="#DBDCE0" stroke="#818E96" stroke-miterlimit="10" d="M1210.9,377.81
				c-3.9-8.819-9.218-16.42-15.808-22.629c-6.624-6.235-14.579-11.128-23.652-14.521c-9.093-3.41-18.882-5.139-29.12-5.139
				c-10.24,0-20.031,1.729-29.117,5.139c-9.08,3.394-17.025,8.286-23.637,14.521c-6.591,6.209-11.902,13.81-15.788,22.629
				c-3.87,8.779-5.836,18.703-5.836,29.489c0,10.795,1.964,20.776,5.836,29.638c3.876,8.894,9.19,16.601,15.797,22.918
				c6.603,6.334,14.548,11.376,23.643,14.973c9.097,3.598,18.895,5.419,29.103,5.419c10.21,0,20.006-1.821,29.103-5.419
				c0.259-0.103,0.466-0.266,0.722-0.366c-26.64-6.428-46.712-18.013-58.822-33.827c-0.679-0.744-1.461-1.363-2.076-2.15
				c-3.334-4.316-5.855-9.277-7.505-14.745c-1.659-5.442-2.492-10.983-2.492-16.439c0-5.46,0.834-10.944,2.492-16.305
				c1.655-5.369,4.184-10.278,7.505-14.578c3.355-4.32,7.638-7.86,12.742-10.517c5.115-2.65,11.279-3.983,18.333-3.983
				c7.05,0,13.222,1.333,18.337,3.983c5.11,2.666,9.389,6.207,12.728,10.517c3.317,4.282,5.848,9.185,7.523,14.578
				c1.662,5.388,2.492,10.869,2.492,16.305s-0.83,10.979-2.492,16.439c-1.669,5.502-4.206,10.445-7.523,14.745
				c-3.345,4.314-7.62,7.907-12.707,10.629c-2.829,1.539-6.055,2.538-9.503,3.225c10.929,5.136,24.068,8.913,39.185,11.202
				c1.554-1.24,3.288-2.302,4.726-3.684c6.606-6.295,11.926-14.024,15.814-22.918c3.873-8.886,5.838-18.852,5.838-29.638
				C1216.737,396.534,1214.773,386.608,1210.9,377.81z"/>
		</g>
		<g>
			<defs>
				<path id="SVGID_29_" d="M348.179,343.632c0,0,358.698,136.812,1111.303,0V241.722H348.179V343.632z"/>
			</defs>
			<clipPath id="SVGID_30_">
				<use xlink:href="#SVGID_29_"  overflow="visible"/>
			</clipPath>
			<path clip-path="url(#SVGID_30_)" fill="#DBDCE0" stroke="#818E96" stroke-width="0.75" stroke-miterlimit="10" d="
				M562.185,480.247c-9.424,0-17.087-7.671-17.087-17.09V354.818c0-9.338,7.603-17.001,16.95-17.089
				c9.563,0,17.232,7.665,17.232,17.089v108.339C579.281,472.576,571.611,480.247,562.185,480.247z"/>
		</g>
		<g>
			<defs>
				<path id="SVGID_31_" d="M348.179,343.632c0,0,358.698,136.812,1111.303,0V241.722H348.179V343.632z"/>
			</defs>
			<clipPath id="SVGID_32_">
				<use xlink:href="#SVGID_31_"  overflow="visible"/>
			</clipPath>
			<g clip-path="url(#SVGID_32_)">
				<path fill="#DBDCE0" stroke="#818E96" stroke-width="0.75" stroke-miterlimit="10" d="M415.745,325.769v-43.274
					c0-9.271-7.527-16.807-17.099-16.807h-0.003c-9.086,0.171-16.472,7.708-16.472,16.807v68.835
					C390.378,339.495,402.169,330.491,415.745,325.769z"/>
				<path fill="#DBDCE0" stroke="#818E96" stroke-width="0.75" stroke-miterlimit="10" d="M448.339,332.819
					c-1.184,0-2.37,0.025-3.561,0.083c-34.524,1.809-62.608,33.141-62.608,69.87v60.229c0,9.491,7.735,17.247,17.237,17.247
					c9.505,0,17.241-7.756,17.241-17.247l0.01-64.425c0.208-17.271,14.419-31.312,31.676-31.312
					c17.488,0,31.715,14.226,31.715,31.714l-0.036,0.982v63.04c0,9.491,7.737,17.247,17.248,17.247
					c9.501,0,17.234-7.756,17.234-17.247v-64.022C514.496,362.494,484.822,332.819,448.339,332.819z"/>
			</g>
		</g>
		<g>
			<defs>
				<path id="SVGID_33_" d="M348.179,343.632c0,0,358.698,136.812,1111.303,0V241.722H348.179V343.632z"/>
			</defs>
			<clipPath id="SVGID_34_">
				<use xlink:href="#SVGID_33_"  overflow="visible"/>
			</clipPath>
			<path clip-path="url(#SVGID_34_)" fill="#DBDCE0" stroke="#818E96" stroke-width="0.75" stroke-miterlimit="10" d="
				M834.92,480.247c-11.08,0-21.411-1.758-30.688-5.225c-9.251-3.43-17.407-8.382-24.244-14.709
				c-6.786-6.3-12.181-14.135-16.021-23.307c-3.857-9.192-5.813-19.759-5.813-31.409c0-11.438,1.956-22.016,5.815-31.415
				c3.847-9.378,9.197-17.48,15.896-24.069c6.718-6.616,14.771-11.813,23.935-15.46c9.191-3.651,19.258-5.51,29.911-5.51
				c9.86,0,19.117,1.647,27.518,4.911c8.35,3.238,15.681,8.122,21.794,14.532c6.67,6.999,11.514,15.081,14.389,24.015
				c1.656,5.15,2.945,10.583,3.843,16.154c1.039,6.485-0.845,13.109-5.156,18.176c-4.462,5.232-10.949,8.229-17.809,8.229h-40.474
				l-0.987-0.065h-4.588c-6.587,0-11.938-5.356-11.938-11.942c0-6.585,5.352-11.94,11.938-11.94l27.585,0.014
				c2.706,0,4.739-0.895,6.037-2.672c2.783-3.781,1.147-10.046,0.582-11.875c-1.342-4.328-3.487-8.196-6.374-11.502
				c-2.899-3.315-6.612-5.987-11.034-7.94c-4.425-1.96-9.68-2.946-15.619-2.946c-11.035,0-20.53,3.373-28.225,10.045
				c-7.701,6.654-14.084,19.355-14.084,40.713c0,10.121,3.053,21.446,5.423,25.873c2.356,4.427,5.536,8.279,9.435,11.456
				c3.854,3.152,8.305,5.688,13.232,7.532c4.908,1.849,10.102,2.781,15.423,2.781c9.437,0,24.87,0,35.7-12.458
				c0.486-0.562,1.043-1.347,1.68-2.245c2.595-3.683,6.516-9.243,13.176-9.243c1.57,0,3.239,0.313,4.974,0.921
				c3.43,1.219,5.771,3.219,6.95,5.95c2.282,5.252-0.266,11.887-1.096,13.791C884.084,476.74,857.101,480.247,834.92,480.247z"/>
		</g>
		<g>
			<defs>
				<path id="SVGID_35_" d="M348.179,343.632c0,0,358.698,136.812,1111.303,0V241.722H348.179V343.632z"/>
			</defs>
			<clipPath id="SVGID_36_">
				<use xlink:href="#SVGID_35_"  overflow="visible"/>
			</clipPath>
			<g clip-path="url(#SVGID_36_)">
				<path fill="#DBDCE0" stroke="#818E96" stroke-width="0.75" stroke-miterlimit="10" d="M1313.916,337.529h-25.469v-10.082
					c0-3.663,0.313-7.473,0.934-11.3c0.613-3.913,1.813-7.582,3.562-10.86c1.909-3.603,4.688-6.408,8.02-8.123
					c3.541-1.803,6.247-1.954,8.951-1.954l5.016,0.02c8.245,0,14.943-6.702,14.943-14.949c0-8.229-6.698-14.942-14.943-14.942
					h-5.938l-1.455-0.041c-9.335,0.4-17.198,2.072-23.381,5.015c-7.252,3.421-13.159,8.14-17.575,14.012
					c-4.425,5.916-7.607,12.84-9.477,20.594c-1.872,7.849-2.818,16.139-2.818,24.649v7.962h-10.077
					c-7.425,0-13.457,6.056-13.457,13.489c0,7.426,6.031,13.465,13.457,13.465h9.078l0.999,0.071h34.163v-0.071h25.469
					c7.427,0,13.467-6.039,13.467-13.465C1327.382,343.585,1321.342,337.529,1313.916,337.529z"/>
				<path fill="#DBDCE0" stroke="#818E96" stroke-width="0.75" stroke-miterlimit="10" d="M1254.283,376.424l-0.079,86.399
					c0,9.593,7.684,17.423,17.133,17.423c9.454,0,17.15-7.83,17.15-17.423l-0.041-86.399H1254.283L1254.283,376.424z"/>
			</g>
		</g>
		<g>
			<defs>
				<path id="SVGID_37_" d="M348.179,343.632c0,0,358.698,136.812,1111.303,0V241.722H348.179V343.632z"/>
			</defs>
			<clipPath id="SVGID_38_">
				<use xlink:href="#SVGID_37_"  overflow="visible"/>
			</clipPath>
			<g clip-path="url(#SVGID_38_)">
				<path fill="#DBDCE0" stroke="#818E96" stroke-width="0.75" stroke-miterlimit="10" d="M1040.158,419.276
					c-2.02-4.62-4.718-8.588-8.016-11.799c-3.229-3.109-6.931-5.69-11.008-7.663c-3.854-1.864-7.814-3.393-11.771-4.534
					c-3.96-1.12-9.423-2.145-12.822-2.65c-1.648-0.225-3.525-0.454-5.537-0.702c-2.28-0.282-4.727-0.581-7.542-1.001
					c-2.639-0.371-5.271-0.816-7.666-1.388c-20.288-3.713-36.388-9.4-47.887-16.903c-0.496,2.796-0.733,5.472-0.733,8.159
					c0,5.857,1.041,11.082,3.103,15.527c2.02,4.392,4.737,8.218,8.084,11.392c3.257,3.074,6.945,5.667,10.991,7.687
					c3.825,1.927,7.824,3.511,11.863,4.705c3.896,1.165,7.719,2.072,11.363,2.75l9.281,1.665c0.555,0.092,1.496,0.207,2.672,0.324
					c2.625,0.289,6.432,0.707,10.126,1.489c13.293,2.185,32.105,7.578,47.154,20.717c0.925-3.85,1.392-7.512,1.392-11.119
					C1043.205,429.534,1042.182,423.927,1040.158,419.276z"/>
				<path fill="#DBDCE0" stroke="#818E96" stroke-width="0.75" stroke-miterlimit="10" d="M980.41,370.452h38.613
					c9.061,0,16.436-7.385,16.436-16.438c0-9.068-7.375-16.431-16.436-16.431h-34.709c-7.223,0-13.959,0.596-20.008,1.779
					c-6.506,1.291-12.53,3.522-17.855,6.646c-5.6,3.278-10.226,7.791-13.779,13.418c-0.256,0.41-0.478,0.832-0.857,1.609
					c7.843,5.724,18.813,10.421,32.621,13.979C968.055,370.459,976.599,370.459,980.41,370.452z"/>
				<path fill="#DBDCE0" stroke="#818E96" stroke-width="0.75" stroke-miterlimit="10" d="M987.551,447.319
					c-0.123,0-40.463,0.016-40.463,0.016c-9.053,0-16.431,7.389-16.431,16.447s7.377,16.426,16.431,16.426l37.276,0.039
					c10.788,0,18.322-0.784,25.197-2.608c6.716-1.799,12.642-4.497,17.582-8.067c3.752-2.689,6.941-6.187,9.75-10.699
					c-7.97-7.921-18.402-13.866-31.046-17.664C1003.024,445.205,996.722,447.319,987.551,447.319z"/>
			</g>
		</g>
		<g>
			<defs>
				<path id="SVGID_39_" d="M348.179,343.632c0,0,358.698,136.812,1111.303,0V241.722H348.179V343.632z"/>
			</defs>
			<clipPath id="SVGID_40_">
				<use xlink:href="#SVGID_39_"  overflow="visible"/>
			</clipPath>
			<g clip-path="url(#SVGID_40_)">
				<path fill="#DBDCE0" stroke="#818E96" stroke-width="0.75" stroke-miterlimit="10" d="M676.787,480.247
					c-11.265,0-21.281-6.759-25.516-17.209l-41.46-102.574c-2.079-5.146-1.46-10.953,1.633-15.546
					c3.104-4.59,8.259-7.336,13.799-7.336h1.111c6.902,0,13.167,4.338,15.584,10.801l30.031,80.118l17.963,48.315
					C685.836,479.059,681.309,480.247,676.787,480.247z"/>
				<path fill="#DBDCE0" stroke="#818E96" stroke-width="0.75" stroke-miterlimit="10" d="M683.447,425.122l28.636-76.668
					c2.41-6.501,8.678-10.873,15.618-10.873c5.605,0,10.624,2.658,13.779,7.301c3.144,4.64,3.762,10.282,1.69,15.493
					l-40.815,102.519c-0.754,1.881-1.718,3.688-2.908,5.414L683.447,425.122z"/>
			</g>
		</g>
		<g>
			<defs>
				<path id="SVGID_41_" d="M348.179,343.632c0,0,358.698,136.812,1111.303,0V241.722H348.179V343.632z"/>
			</defs>
			<clipPath id="SVGID_42_">
				<use xlink:href="#SVGID_41_"  overflow="visible"/>
			</clipPath>
			<g clip-path="url(#SVGID_42_)">
				<path fill="#DBDCE0" stroke="#818E96" stroke-width="0.75" stroke-miterlimit="10" d="M1389.383,438.111
					c-0.59-2.789-0.878-5.575-0.878-8.489V280.507c0-9.228-7.523-16.764-16.817-16.792c-9.237,0-16.76,7.535-16.76,16.792
					l-0.128,133.62C1359.818,420.97,1374.521,434.57,1389.383,438.111z"/>
				<path fill="#DBDCE0" stroke="#818E96" stroke-width="0.75" stroke-miterlimit="10" d="M1424.286,453.199l-3.113,0.033
					c-4.591,0-8.979-0.164-13.659-0.463c-2.246-0.057-4.2-0.32-5.917-0.676c-20.053-2.285-35.679-11.483-46.507-21.001
					c0.216,5.603,0.795,13.817,1.771,18.369c1.26,5.966,3.635,11.316,7.058,15.897c3.386,4.563,8.066,8.201,13.921,10.827
					c5.484,2.474,9.912,3.987,25.36,4.06h17.692c7.573,0,13.743-6.156,13.743-13.727
					C1434.635,460.139,1430.715,453.199,1424.286,453.199z"/>
				<path fill="#DBDCE0" stroke="#818E96" stroke-width="0.75" stroke-miterlimit="10" d="M1436.981,340.486
					c-4.302-4.198-9.697-6.321-16.03-6.321c-6.406,0-11.558,2.163-15.701,6.62c-4.125,4.396-6.216,9.631-6.216,15.592
					c0,6.027,2.028,11.12,6.224,15.598c4.145,4.431,9.286,6.608,15.693,6.608c6.332,0,11.729-2.134,16.03-6.311
					c4.307-4.199,6.486-9.543,6.486-15.896C1443.468,350.027,1441.288,344.678,1436.981,340.486z"/>
			</g>
		</g>
	</g>
</g>
<g id="PAYOFF">
	<g>
		<g>
			<path fill="#636D76" d="M432.178,564.541l-9.894-36.696l-10.02,36.696c-0.779,2.782-1.398,4.779-1.858,5.991
				c-0.459,1.211-1.259,2.296-2.4,3.256c-1.141,0.96-2.658,1.44-4.55,1.44c-1.531,0-2.791-0.286-3.778-0.855
				c-0.988-0.571-1.789-1.378-2.4-2.422c-0.613-1.044-1.114-2.282-1.503-3.716c-0.391-1.434-0.737-2.761-1.043-3.985l-10.187-41.205
				c-0.613-2.394-0.918-4.217-0.918-5.468c0-1.587,0.557-2.923,1.67-4.009c1.113-1.086,2.491-1.628,4.133-1.628
				c2.255,0,3.771,0.725,4.55,2.171c0.78,1.448,1.461,3.549,2.046,6.304l8.016,35.736l8.976-33.439
				c0.668-2.561,1.266-4.509,1.794-5.844c0.529-1.336,1.392-2.49,2.588-3.466c1.196-0.974,2.825-1.461,4.884-1.461
				c2.088,0,3.708,0.508,4.864,1.524c1.155,1.016,1.955,2.122,2.4,3.318s1.043,3.173,1.795,5.928l9.059,33.439l8.016-35.736
				c0.39-1.863,0.758-3.325,1.105-4.384c0.349-1.057,0.947-2.003,1.795-2.838c0.848-0.836,2.08-1.253,3.695-1.253
				c1.613,0,2.985,0.537,4.112,1.607c1.127,1.071,1.69,2.414,1.69,4.029c0,1.14-0.307,2.964-0.918,5.468l-10.186,41.205
				c-0.695,2.782-1.273,4.821-1.733,6.115c-0.459,1.294-1.238,2.429-2.337,3.402c-1.1,0.975-2.651,1.462-4.654,1.462
				c-1.893,0-3.41-0.474-4.55-1.42c-1.142-0.946-1.934-2.01-2.379-3.193C433.611,569.432,432.985,567.407,432.178,564.541z"/>
			<path fill="#636D76" d="M479.394,518.868v16.908c1.447-1.67,2.86-2.991,4.237-3.967c1.378-0.974,2.901-1.704,4.571-2.191
				c1.67-0.486,3.466-0.729,5.387-0.729c2.894,0,5.461,0.612,7.702,1.836c2.24,1.226,4.001,3.006,5.281,5.345
				c0.807,1.363,1.35,2.888,1.627,4.571c0.279,1.685,0.419,3.626,0.419,5.823v21.834c0,2.283-0.522,4.009-1.566,5.177
				c-1.042,1.169-2.429,1.754-4.154,1.754c-3.756,0-5.635-2.31-5.635-6.93v-19.245c0-3.646-0.543-6.45-1.628-8.413
				c-1.086-1.962-3.146-2.942-6.178-2.942c-2.032,0-3.862,0.578-5.49,1.732c-1.628,1.155-2.847,2.735-3.653,4.738
				c-0.612,1.698-0.918,4.718-0.918,9.059v15.07c0,2.256-0.507,3.974-1.523,5.156s-2.428,1.774-4.237,1.774
				c-3.757,0-5.636-2.31-5.636-6.93v-49.43c0-2.31,0.493-4.042,1.481-5.197c0.987-1.154,2.372-1.733,4.154-1.733
				c1.809,0,3.221,0.585,4.237,1.754C478.886,514.86,479.394,516.587,479.394,518.868z"/>
			<path fill="#636D76" d="M530.41,576.646l1.043-2.546l-14.026-35.318c-0.863-2.032-1.295-3.508-1.295-4.425
				c0-0.975,0.251-1.88,0.753-2.714c0.501-0.835,1.189-1.504,2.066-2.004c0.878-0.501,1.788-0.751,2.734-0.751
				c1.643,0,2.881,0.521,3.716,1.564c0.835,1.044,1.571,2.54,2.212,4.489l9.645,28.053l9.143-26.092
				c0.724-2.114,1.378-3.771,1.962-4.968c0.584-1.196,1.203-2.003,1.857-2.421c0.653-0.418,1.579-0.626,2.776-0.626
				c0.862,0,1.69,0.229,2.483,0.688c0.793,0.46,1.404,1.079,1.836,1.858c0.433,0.778,0.648,1.6,0.648,2.463
				c-0.112,0.528-0.292,1.28-0.542,2.254c-0.25,0.975-0.558,1.962-0.919,2.965l-14.861,38.909c-1.28,3.423-2.533,6.108-3.758,8.057
				c-1.225,1.947-2.846,3.444-4.863,4.488s-4.738,1.565-8.161,1.565c-3.34,0-5.844-0.362-7.515-1.086
				c-1.67-0.724-2.504-2.045-2.504-3.966c0-1.309,0.395-2.317,1.188-3.026c0.794-0.71,1.969-1.064,3.528-1.064
				c0.61,0,1.21,0.084,1.794,0.25c0.724,0.167,1.351,0.251,1.879,0.251c1.308,0,2.337-0.195,3.09-0.585
				c0.751-0.391,1.426-1.063,2.024-2.025C528.941,579.925,529.629,578.51,530.41,576.646z"/>
			<path fill="#636D76" d="M594.7,535.985l7.432,25.467l6.763-23.672c0.724-2.478,1.259-4.167,1.607-5.071
				c0.348-0.904,1.002-1.769,1.962-2.59c0.96-0.819,2.275-1.23,3.944-1.23c1.697,0,3.027,0.411,3.987,1.23
				c0.96,0.821,1.635,1.712,2.025,2.672c0.39,0.96,0.933,2.624,1.627,4.988l6.764,23.672l7.515-25.467
				c0.501-1.837,0.904-3.166,1.212-3.986c0.305-0.82,0.82-1.546,1.544-2.172c0.724-0.625,1.768-0.938,3.131-0.938
				s2.547,0.473,3.549,1.419c1.002,0.947,1.504,2.061,1.504,3.341c0,1.169-0.433,2.936-1.295,5.301l-9.31,27.304
				c-0.808,2.311-1.435,3.979-1.879,5.01c-0.445,1.029-1.148,1.949-2.109,2.755c-0.96,0.807-2.274,1.212-3.943,1.212
				c-1.728,0-3.083-0.433-4.071-1.294c-0.988-0.863-1.72-1.921-2.191-3.174c-0.474-1.251-0.989-2.88-1.546-4.884l-6.513-22.21
				l-6.303,22.21c-0.836,3.089-1.74,5.421-2.714,6.993c-0.975,1.572-2.686,2.358-5.135,2.358c-1.251,0-2.317-0.243-3.193-0.729
				s-1.606-1.183-2.19-2.088c-0.584-0.903-1.102-1.976-1.546-3.214c-0.445-1.238-0.793-2.221-1.043-2.943l-9.227-27.304
				c-0.918-2.56-1.378-4.327-1.378-5.301c0-1.225,0.487-2.324,1.461-3.299c0.975-0.974,2.171-1.461,3.591-1.461
				c1.893,0,3.174,0.536,3.84,1.606C593.239,531.567,593.949,533.396,594.7,535.985z"/>
			<path fill="#636D76" d="M698.649,552.057c0,3.396-0.528,6.527-1.587,9.394c-1.057,2.865-2.588,5.329-4.591,7.389
				c-2.004,2.061-4.396,3.64-7.18,4.738c-2.783,1.098-5.914,1.649-9.394,1.649c-3.45,0-6.553-0.558-9.309-1.67
				c-2.756-1.113-5.143-2.707-7.16-4.78s-3.549-4.522-4.592-7.347c-1.044-2.825-1.566-5.95-1.566-9.373
				c0-3.451,0.529-6.609,1.587-9.477c1.058-2.865,2.574-5.316,4.55-7.347c1.976-2.032,4.369-3.598,7.182-4.696
				c2.811-1.101,5.913-1.649,9.309-1.649c3.451,0,6.583,0.557,9.394,1.669c2.812,1.113,5.218,2.7,7.222,4.76
				c2.003,2.061,3.527,4.509,4.57,7.348C698.127,545.504,698.649,548.635,698.649,552.057z M687.212,552.057
				c0-4.648-1.023-8.266-3.069-10.854c-2.045-2.588-4.795-3.882-8.245-3.882c-2.226,0-4.188,0.578-5.886,1.733
				c-1.697,1.154-3.005,2.858-3.923,5.113c-0.919,2.255-1.379,4.885-1.379,7.891c0,2.979,0.453,5.58,1.358,7.807
				c0.903,2.228,2.197,3.932,3.882,5.114c1.684,1.183,3.667,1.774,5.948,1.774c3.451,0,6.2-1.301,8.245-3.903
				S687.212,556.649,687.212,552.057z"/>
			<path fill="#636D76" d="M718.942,558.779v9.519c0,2.311-0.542,4.043-1.628,5.197s-2.464,1.733-4.134,1.733
				c-1.644,0-2.994-0.585-4.052-1.754c-1.058-1.169-1.586-2.894-1.586-5.177V536.57c0-5.12,1.85-7.681,5.553-7.681
				c1.893,0,3.259,0.598,4.094,1.795c0.834,1.197,1.293,2.965,1.377,5.302c1.363-2.337,2.765-4.104,4.198-5.302
				c1.435-1.197,3.348-1.795,5.742-1.795s4.721,0.598,6.977,1.795s3.382,2.783,3.382,4.759c0,1.393-0.479,2.541-1.44,3.445
				s-1.997,1.357-3.111,1.357c-0.418,0-1.429-0.258-3.028-0.772c-1.602-0.515-3.015-0.772-4.24-0.772
				c-1.669,0-3.034,0.438-4.093,1.315c-1.058,0.877-1.879,2.179-2.463,3.903s-0.989,3.778-1.211,6.157
				C719.053,552.454,718.942,555.356,718.942,558.779z"/>
			<path fill="#636D76" d="M771.357,570.009l-10.062-16.531l-6.183,5.844v9.059c0,2.199-0.577,3.89-1.732,5.072
				s-2.486,1.774-3.987,1.774c-1.757,0-3.135-0.584-4.135-1.754c-1.004-1.169-1.505-2.894-1.505-5.176v-48.594
				c0-2.532,0.486-4.46,1.463-5.781c0.973-1.323,2.365-1.984,4.177-1.984c1.753,0,3.146,0.599,4.175,1.796
				c1.03,1.197,1.545,2.965,1.545,5.302v27.637l12.823-13.442c1.586-1.67,2.796-2.811,3.631-3.423s1.851-0.918,3.048-0.918
				c1.419,0,2.602,0.452,3.549,1.357c0.945,0.904,1.419,2.038,1.419,3.402c0,1.669-1.546,3.897-4.634,6.679l-6.055,5.552
				l11.691,18.37c0.86,1.363,1.481,2.4,1.855,3.109c0.377,0.711,0.564,1.385,0.564,2.025c0,1.811-0.494,3.235-1.482,4.279
				c-0.987,1.043-2.289,1.565-3.901,1.565c-1.394,0-2.464-0.377-3.215-1.127C773.654,573.349,772.637,571.985,771.357,570.009z"/>
			<path fill="#636D76" d="M842.161,568.799c-2.754,2.145-5.421,3.752-7.995,4.822s-5.461,1.607-8.662,1.607
				c-2.922,0-5.49-0.579-7.703-1.733c-2.211-1.154-3.917-2.72-5.114-4.696c-1.196-1.976-1.795-4.119-1.795-6.43
				c0-3.117,0.989-5.774,2.964-7.974c1.978-2.197,4.689-3.674,8.143-4.424c0.723-0.168,2.518-0.543,5.384-1.128
				s5.323-1.12,7.369-1.607c2.046-0.486,4.267-1.077,6.66-1.773c-0.14-3.005-0.745-5.211-1.815-6.617
				c-1.073-1.405-3.292-2.108-6.659-2.108c-2.896,0-5.072,0.403-6.533,1.211c-1.462,0.807-2.714,2.018-3.757,3.633
				c-1.045,1.614-1.783,2.679-2.214,3.192c-0.432,0.516-1.356,0.772-2.775,0.772c-1.281,0-2.389-0.41-3.319-1.231
				c-0.933-0.821-1.398-1.872-1.398-3.153c0-2.003,0.709-3.95,2.128-5.844c1.419-1.893,3.633-3.451,6.639-4.676
				c3.005-1.224,6.749-1.837,11.229-1.837c5.01,0,8.947,0.592,11.813,1.773c2.866,1.184,4.893,3.055,6.075,5.615
				s1.773,5.956,1.773,10.187c0,2.672-0.007,4.941-0.02,6.806c-0.014,1.864-0.035,3.938-0.063,6.219
				c0,2.145,0.354,4.378,1.064,6.701c0.711,2.323,1.065,3.82,1.065,4.487c0,1.169-0.549,2.233-1.65,3.194
				c-1.1,0.959-2.345,1.439-3.736,1.439c-1.169,0-2.323-0.551-3.464-1.649C844.653,572.477,843.441,570.885,842.161,568.799z
				 M841.41,552.308c-1.671,0.612-4.098,1.259-7.284,1.94c-3.188,0.683-5.394,1.184-6.618,1.503
				c-1.225,0.32-2.395,0.947-3.507,1.879c-1.112,0.934-1.669,2.233-1.669,3.903c0,1.727,0.653,3.193,1.961,4.404
				s3.021,1.816,5.136,1.816c2.254,0,4.334-0.495,6.239-1.482c1.908-0.988,3.306-2.26,4.197-3.82
				c1.028-1.726,1.545-4.564,1.545-8.517V552.308L841.41,552.308z"/>
			<path fill="#636D76" d="M864.162,568.298v-49.43c0-2.281,0.508-4.008,1.522-5.176c1.017-1.17,2.387-1.754,4.112-1.754
				s3.118,0.579,4.175,1.733c1.06,1.155,1.587,2.888,1.587,5.197v49.429c0,2.311-0.537,4.044-1.608,5.198
				c-1.07,1.154-2.456,1.732-4.154,1.732c-1.669,0-3.025-0.599-4.07-1.795C864.684,572.235,864.162,570.523,864.162,568.298z"/>
			<path fill="#636D76" d="M929.997,552.057c0,3.396-0.53,6.527-1.587,9.394c-1.059,2.865-2.588,5.329-4.591,7.389
				c-2.003,2.061-4.399,3.64-7.182,4.738c-2.784,1.099-5.915,1.649-9.393,1.649c-3.451,0-6.555-0.558-9.31-1.67
				c-2.756-1.113-5.143-2.707-7.16-4.78s-3.549-4.522-4.592-7.347c-1.044-2.825-1.565-5.95-1.565-9.373
				c0-3.451,0.528-6.609,1.586-9.477c1.059-2.865,2.573-5.316,4.551-7.347c1.976-2.032,4.369-3.598,7.182-4.696
				c2.811-1.101,5.913-1.649,9.31-1.649c3.451,0,6.581,0.557,9.393,1.669c2.811,1.113,5.218,2.7,7.224,4.76
				c2.003,2.061,3.528,4.509,4.571,7.348C929.476,545.504,929.997,548.635,929.997,552.057z M918.56,552.057
				c0-4.648-1.024-8.266-3.069-10.854c-2.046-2.588-4.795-3.882-8.245-3.882c-2.228,0-4.189,0.578-5.887,1.733
				c-1.696,1.154-3.005,2.858-3.925,5.113c-0.919,2.255-1.377,4.885-1.377,7.891c0,2.979,0.451,5.58,1.356,7.807
				c0.905,2.228,2.199,3.932,3.883,5.114s3.668,1.774,5.95,1.774c3.451,0,6.199-1.301,8.244-3.903S918.56,556.649,918.56,552.057z"
				/>
			<path fill="#636D76" d="M949.319,535.192v1.378c2.001-2.645,4.194-4.586,6.572-5.824s5.111-1.857,8.199-1.857
				c3.005,0,5.688,0.653,8.053,1.962c2.364,1.308,4.133,3.158,5.302,5.552c0.751,1.393,1.237,2.895,1.461,4.508
				c0.223,1.615,0.334,3.675,0.334,6.179v21.208c0,2.282-0.521,4.008-1.565,5.176c-1.043,1.17-2.401,1.754-4.07,1.754
				c-1.698,0-3.075-0.6-4.131-1.796c-1.057-1.195-1.586-2.908-1.586-5.134v-18.995c0-3.757-0.521-6.631-1.566-8.62
				c-1.042-1.99-3.121-2.985-6.237-2.985c-2.03,0-3.88,0.605-5.551,1.815c-1.667,1.211-2.893,2.874-3.67,4.988
				c-0.558,1.698-0.835,4.871-0.835,9.519v14.278c0,2.311-0.537,4.043-1.607,5.197c-1.071,1.154-2.455,1.733-4.153,1.733
				c-1.639,0-2.99-0.6-4.047-1.796c-1.058-1.196-1.586-2.908-1.586-5.134v-32.939c0-2.171,0.474-3.791,1.421-4.863
				c0.943-1.071,2.237-1.607,3.877-1.607c1.003,0,1.907,0.236,2.714,0.709c0.805,0.474,1.452,1.183,1.94,2.13
				C949.075,532.673,949.319,533.828,949.319,535.192z"/>
			<path fill="#636D76" d="M1022.407,554.854h-22.293c0.028,2.589,0.549,4.872,1.566,6.848c1.015,1.976,2.364,3.464,4.049,4.466
				c1.684,1.002,3.542,1.503,5.573,1.503c1.363,0,2.609-0.159,3.736-0.479c1.127-0.319,2.219-0.82,3.277-1.503
				c1.057-0.682,2.031-1.412,2.922-2.191s2.046-1.837,3.465-3.173c0.584-0.501,1.421-0.752,2.506-0.752
				c1.169,0,2.113,0.319,2.838,0.96s1.085,1.545,1.085,2.713c0,1.03-0.401,2.233-1.209,3.611c-0.809,1.377-2.026,2.7-3.653,3.967
				s-3.674,2.316-6.137,3.151c-2.464,0.836-5.295,1.253-8.496,1.253c-7.32,0-13.011-2.088-17.074-6.263
				c-4.064-4.174-6.097-9.837-6.097-16.991c0-3.367,0.503-6.491,1.503-9.372c1.003-2.881,2.464-5.35,4.384-7.409
				c1.922-2.06,4.287-3.64,7.098-4.739c2.812-1.099,5.928-1.648,9.353-1.648c4.451,0,8.271,0.939,11.459,2.818
				c3.187,1.878,5.573,4.308,7.158,7.285c1.587,2.978,2.38,6.012,2.38,9.101c0,2.867-0.821,4.724-2.462,5.573
				C1027.694,554.43,1025.385,554.854,1022.407,554.854z M1000.114,548.383h20.665c-0.28-3.896-1.33-6.812-3.153-8.745
				c-1.824-1.935-4.223-2.901-7.2-2.901c-2.839,0-5.171,0.981-6.993,2.943S1000.503,544.543,1000.114,548.383z"/>
			<path fill="#636D76" d="M1039.273,529.388c0-2.644,0.849-5.322,2.546-8.037c1.698-2.712,4.175-4.96,7.432-6.741
				s7.056-2.672,11.397-2.672c4.035,0,7.599,0.745,10.688,2.233c3.09,1.489,5.475,3.514,7.16,6.074
				c1.684,2.561,2.524,5.344,2.524,8.35c0,2.366-0.479,4.439-1.439,6.22c-0.96,1.781-2.102,3.318-3.423,4.612
				c-1.322,1.294-3.695,3.473-7.117,6.534c-0.947,0.862-1.706,1.621-2.275,2.274c-0.572,0.654-0.995,1.253-1.273,1.796
				c-0.278,0.542-0.495,1.085-0.647,1.627c-0.154,0.542-0.384,1.497-0.69,2.86c-0.528,2.894-2.184,4.342-4.968,4.342
				c-1.446,0-2.665-0.473-3.651-1.42c-0.989-0.945-1.482-2.352-1.482-4.217c0-2.337,0.36-4.362,1.085-6.073
				c0.724-1.712,1.684-3.215,2.881-4.509c1.196-1.294,2.812-2.831,4.843-4.612c1.781-1.558,3.068-2.735,3.862-3.528
				c0.793-0.794,1.462-1.676,2.003-2.65c0.543-0.975,0.814-2.032,0.814-3.174c0-2.226-0.828-4.104-2.482-5.635
				c-1.658-1.531-3.794-2.297-6.41-2.297c-3.061,0-5.316,0.772-6.763,2.317c-1.447,1.545-2.672,3.82-3.673,6.825
				c-0.947,3.146-2.743,4.719-5.387,4.719c-1.559,0-2.873-0.55-3.943-1.649C1039.809,531.859,1039.273,530.67,1039.273,529.388z
				 M1059.646,575.143c-1.699,0-3.182-0.549-4.446-1.648c-1.267-1.1-1.9-2.637-1.9-4.612c0-1.754,0.612-3.229,1.837-4.425
				c1.225-1.196,2.729-1.796,4.51-1.796c1.753,0,3.229,0.6,4.425,1.796c1.195,1.196,1.795,2.671,1.795,4.425
				c0,1.948-0.626,3.479-1.88,4.592C1062.733,574.588,1061.287,575.143,1059.646,575.143z"/>
		</g>
	</g>
</g>
</svg>
